# xmcd CD database file
#
# Track frame offsets:
#	150
#	13475
#	26238
#	42850
#	58003
#	70846
#	90385
#	102746
#	117938
#	134106
#
# Disc length: 2019 seconds
#
# Revision: 0
# Processed by: cddbd v1.5.2PL0 Copyright (c) Steve Scherf et al.
# Submitted via: CDex 1.51
#
DISCID=9407e10a
DTITLE=Johnny Zamot - Introduces the Boogaloo Frog
DYEAR=1969
DGENRE=Salsa
TTITLE0=Boogaloo Frog
TTITLE1=Hey Mama
TTITLE2=Are You Ready
TTITLE3=Miriam Baby
TTITLE4=Do You Really Want To Fly?
TTITLE5=Yo Volvere
TTITLE6=Catalina
TTITLE7=Yo Vendo Amor
TTITLE8=Pa' Los Pelu
TTITLE9=Cat Fish Bag
EXTD=YEAR: 1969
EXTT0=
EXTT1=
EXTT2=
EXTT3=
EXTT4=
EXTT5=
EXTT6=
EXTT7=
EXTT8=
EXTT9=
PLAYORDER=
